<?xml version="1.0"?><svg width="409.313" height="353.413" xmlns="http://www.w3.org/2000/svg">
 <title>logo de medicina</title>

 <g>
  <title>Layer 1</title>
  <path transform="translate(59, -37)" fill="#FFFFFF" id="path3" d="m247.524994,114.652c-2.636993,-10.890999 -5.27301,-21.780998 -7.910004,-32.672005c-1.507996,-6.228996 -3.015991,-12.457993 -4.52301,-18.686996c-1.234985,-5.102997 -1.756989,-4.470001 -6.268982,-7.174999c-7.369995,-4.417999 -15.699005,-8.865002 -23.161011,-3.278999c-8.07399,6.045002 -15.175003,12.117001 -17.718994,22.286999c-2.39299,9.557999 3.434006,17.564003 -4.722,25.956001c-5.922989,6.094002 -17.613998,11.668999 -26.316986,11.187996c-18.484009,-1.021996 -44.21402,-5.762993 -41.584,-29.510994c1.108994,-10.019005 -2.992004,-18.532005 -10.591003,-24.869003c-7.731003,-6.446999 -11.884003,-10.68 -21.964996,-6.643997c-3.968002,1.588997 -7.383011,4.365997 -11.210007,5.898998c-3.652,1.462002 -3.284004,5.743999 -4.120003,9.446995c-3.124001,13.836006 -6.248001,27.672005 -9.370995,41.508003c-0.639,2.831001 -1.844002,4.173004 0.417999,5.973999c5.550995,4.418999 11.101997,8.837006 16.653,13.256004c6.126999,4.876999 8.673004,8.565994 16.158005,8.535995c27,-0.106995 54.000992,-0.214996 81.001999,-0.322998c17.987,-0.071991 35.975983,-0.143005 53.963989,-0.214996c1.713013,-0.007004 6.445007,0.90799 7.544006,-0.64801c4.213013,-5.970001 11.56601,-13.161995 13.722992,-20.027992"/>
  <path transform="translate(59, -37)" fill="none" stroke="#000000" stroke-linecap="square" stroke-miterlimit="10" id="path5" d="m247.524994,114.652c-2.636993,-10.890999 -5.27301,-21.780998 -7.910004,-32.672005c-1.507996,-6.228996 -3.015991,-12.457993 -4.52301,-18.686996c-1.234985,-5.102997 -1.756989,-4.470001 -6.268982,-7.174999c-7.369995,-4.417999 -15.699005,-8.865002 -23.161011,-3.278999c-8.07399,6.045002 -15.175003,12.117001 -17.718994,22.286999c-2.39299,9.557999 3.434006,17.564003 -4.722,25.956001c-5.922989,6.094002 -17.613998,11.668999 -26.316986,11.187996c-18.484009,-1.021996 -44.21402,-5.762993 -41.584,-29.510994c1.108994,-10.019005 -2.992004,-18.532005 -10.591003,-24.869003c-7.731003,-6.446999 -11.884003,-10.68 -21.964996,-6.643997c-3.968002,1.588997 -7.383011,4.365997 -11.210007,5.898998c-3.652,1.462002 -3.284004,5.743999 -4.120003,9.446995c-3.124001,13.836006 -6.248001,27.672005 -9.370995,41.508003c-0.639,2.831001 -1.844002,4.173004 0.417999,5.973999c5.550995,4.418999 11.101997,8.837006 16.653,13.256004c6.126999,4.876999 8.673004,8.565994 16.158005,8.535995c27,-0.106995 54.000992,-0.214996 81.001999,-0.322998c17.679001,-0.070007 35.358002,-0.140991 53.036987,-0.210999c1.087982,-0.003998 7.466003,0.770996 8.145996,-0.192993c4.683014,-6.633011 9.36499,-13.266006 14.048004,-19.89901"/>
  <path transform="translate(59, -37)" fill="#FFFFFF" id="path7" d="m146.057999,151.225006c-5.098999,-4.654007 -14.684006,-4.430008 -21.091003,-3.632004c-7.677002,0.956009 -15.983002,0.091995 -23.720993,0.091995c-7.932007,0 -16.292007,0.227005 -24.169006,-0.648987c-3.400993,-0.378021 -22.130997,-2.071014 -14.195999,-8.78801c-7.103996,4.432999 -25.638,3.098999 -24.778,-8.261002c-5.798996,1.925003 -12.277,2.416992 -18.291,1.181c-4.067993,-0.835999 -16.060997,-4.474998 -11.204998,-10.616997c-5.403999,-0.338005 -36.958998,-3.342003 -25.364998,-15.338005c-10.735001,-1.380997 -25.928001,-7.028999 -33.650002,-14.769997c-7.024998,-7.042 5.456001,-7.648003 10.716999,-7.648003c8.103003,0 15.960001,0.535004 24.108002,0c30.748001,-2.018997 57.588997,-11.093002 84.949989,-24.774998c-8.499001,10.742001 18.455002,10.097004 23.009003,8.257999c0,7.013 3.556,17.300003 12.973999,12.979004c1.873993,14.978996 6.350006,25.643997 19.569,33.907997c10.352005,6.472 27.162003,7.562996 37.917999,5.767998c12.709,-2.121002 26.029007,-9.572998 31,-21.977997c1.182007,-2.949005 2.175995,-6.270004 2.597,-9.425003c0.292999,-2.201004 0.587006,-4.403 0.880997,-6.604004c0.158005,-1.187996 3.261002,-0.150993 4.195999,-0.48999c5.950989,-2.156006 11.35199,-5.084 8.848999,-12.977005c7.421997,1.307999 27.368011,4.455002 23.597015,-8.848999c13.21698,6.608002 26.312988,12.556999 40.243988,17.533997c13.696991,4.893997 29.395996,5.841003 43.766998,7.208008c5.196014,0.493996 41.708008,-2.231003 37.51001,6.522995c-1.855011,3.867996 -13.033997,9.307999 -17.106995,10.322998c-6.229004,1.553001 -11.882019,4.322998 -18.287018,5.605003c11.613007,12.333 -19.901001,14.994995 -25.36499,15.334999c4.709991,5.961998 -6.979004,9.931 -11.153015,10.528c-6.648987,0.951004 -12.419983,0.541 -18.936981,-1.089005c5.132996,11.205994 -18.830017,11.611008 -24.184021,8.257996c6.203003,8.006012 -10.826996,8.417999 -15.335999,8.848999c-9.386993,0.896011 -19.477997,1.666016 -28.90799,1.181c-8.617996,-0.442993 -17.160995,-0.589996 -25.809998,-0.589996c-4.024002,0 -7.481995,0.658005 -11.354004,1.770996c-4.491989,1.292999 -7.684982,1.473999 -12.978989,1.179016"/>
  <path transform="translate(59, -37)" fill="none" stroke="#000000" stroke-linecap="square" stroke-miterlimit="10" id="path9" d="m146.057999,151.225006c-5.098999,-4.654007 -14.684006,-4.430008 -21.091003,-3.632004c-7.677002,0.956009 -15.983002,0.091995 -23.720993,0.091995c-7.932007,0 -16.292007,0.227005 -24.169006,-0.648987c-3.400993,-0.378021 -22.130997,-2.071014 -14.195999,-8.78801c-7.103996,4.432999 -25.638,3.098999 -24.778,-8.261002c-5.798996,1.925003 -12.277,2.416992 -18.291,1.181c-4.067993,-0.835999 -16.060997,-4.474998 -11.204998,-10.616997c-5.403999,-0.338005 -36.958998,-3.342003 -25.364998,-15.338005c-10.735001,-1.380997 -25.928001,-7.028999 -33.650002,-14.769997c-7.024998,-7.042 5.456001,-7.648003 10.716999,-7.648003c8.103003,0 15.960001,0.535004 24.108002,0c30.748001,-2.018997 57.588997,-11.093002 84.949989,-24.774998c-8.499001,10.742001 18.455002,10.097004 23.009003,8.257999c0,7.013 3.556,17.300003 12.973999,12.979004c1.873993,14.978996 6.350006,25.643997 19.569,33.907997c10.352005,6.472 27.162003,7.562996 37.917999,5.767998c12.709,-2.121002 26.029007,-9.572998 31,-21.977997c1.182007,-2.949005 2.175995,-6.270004 2.597,-9.425003c0.292999,-2.201004 0.587006,-4.403 0.880997,-6.604004c0.158005,-1.187996 3.261002,-0.150993 4.195999,-0.48999c5.950989,-2.156006 11.35199,-5.084 8.848999,-12.977005c7.421997,1.307999 27.368011,4.455002 23.597015,-8.848999c13.21698,6.608002 26.312988,12.556999 40.243988,17.533997c13.696991,4.893997 29.395996,5.841003 43.766998,7.208008c5.196014,0.493996 41.708008,-2.231003 37.51001,6.522995c-1.855011,3.867996 -13.033997,9.307999 -17.106995,10.322998c-6.229004,1.553001 -11.882019,4.322998 -18.287018,5.605003c11.613007,12.333 -19.901001,14.994995 -25.36499,15.334999c4.709991,5.961998 -6.979004,9.931 -11.153015,10.528c-6.648987,0.951004 -12.419983,0.541 -18.936981,-1.089005c5.132996,11.205994 -18.830017,11.611008 -24.184021,8.257996c6.203003,8.006012 -10.826996,8.417999 -15.335999,8.848999c-9.386993,0.896011 -19.477997,1.666016 -28.90799,1.181c-8.617996,-0.442993 -17.160995,-0.589996 -25.809998,-0.589996c-4.024002,0 -7.481995,0.658005 -11.354004,1.770996c-4.491989,1.292999 -7.684982,1.473999 -12.978989,1.179016"/>
  <path transform="translate(59, -37)" fill="#FFFFFF" id="path11" d="m143.108002,309.325012c3.125992,-1.263 6.639999,-6.946014 10.029999,-9.438995c4.582993,-3.370026 10.376007,-7.246002 15.358002,-9.745026c6.349991,-3.18396 12.518997,-5.937988 17.104996,-11.665985c3.031006,-3.78598 9.619995,-14.574005 1.778,-14.574005c-4.643997,0 -9.287003,0 -13.931,0c0.594009,0 -4.352005,8.137024 -4.977005,8.848999c-4.677994,5.328003 -10.92099,8.559021 -17.103989,11.799011c-13.95401,7.312012 -22.421005,16.963013 -22.421005,33.036011c3.222,-1.676025 14.072998,-5.79303 14.162003,-8.26001"/>
  <path transform="translate(59, -37)" fill="none" stroke="#000000" stroke-linecap="square" stroke-miterlimit="10" id="path13" d="m172.604004,263.309998c2.313004,11.942017 -17.959,18.432007 -25.365997,23.005981c-12.078003,7.460022 -18.291,17.351013 -18.291,31.268036"/>
  <path transform="translate(59, -37)" fill="none" stroke="#000000" stroke-linecap="square" stroke-miterlimit="10" id="path15" d="m143.108002,309.325012c3.104996,-1.255005 5.718002,-6.56601 9.145996,-8.850006c4.481995,-2.987 11.007004,-5.402985 14.748001,-9.144989c4.470001,-4.470001 11.511002,-5.608002 16.242996,-10.345001c4.868011,-4.873016 7.645004,-10.204987 7.645004,-17.085999"/>
  <path transform="translate(59, -37)" fill="#FFFFFF" id="path17" d="m144.289001,348.256989c0.712006,-6.003998 6.505997,-11.221985 10.617004,-15.335999c-3.348007,-1.585999 -6.695999,-3.173004 -10.044006,-4.759003c-2.136993,-1.013 -5.097,3.589996 -6.472,5.347015c-3.261993,4.168976 -6.914001,9.813995 -6.492996,15.337982c4.130997,-0.195984 8.261002,-0.392975 12.391998,-0.589996"/>
  <path transform="translate(59, -37)" fill="none" stroke="#000000" stroke-linecap="square" stroke-miterlimit="10" id="path19" d="m144.289001,348.256989c0.712006,-6.003998 6.505997,-11.221985 10.617004,-15.335999c-3.348007,-1.585999 -6.695999,-3.173004 -10.044006,-4.759003c-2.136993,-1.013 -5.097,3.589996 -6.472,5.347015c-3.261993,4.168976 -6.914001,9.813995 -6.492996,15.337982"/>
  <path transform="translate(59, -37)" fill="#FFFFFF" id="path21" d="m154.906006,356.518005c5.67601,-0.518005 12.341003,-5.957001 14.161011,-11.210999c1.750992,-5.053986 0.421997,-4.34201 -4.726013,-5.813019c-4.847,-1.384979 -9.692993,-2.770996 -14.541,-4.154999c-0.331985,-0.095001 -6.615997,13.002014 -6.104996,14.689026c0.758987,2.507996 11.360992,6.416992 11.210999,6.48999"/>
  <path transform="translate(59, -37)" fill="none" stroke="#000000" stroke-linecap="square" stroke-miterlimit="10" id="path23" d="m154.906006,356.518005c6.550003,-0.597992 15.768005,-8.497009 15.335999,-15.337982"/>
  <path transform="translate(59, -37)" fill="none" stroke="#000000" stroke-linecap="square" stroke-miterlimit="10" id="path25" d="m297.666992,85.155998c12.466003,3.112999 24.665985,2.950005 37.312988,2.950005c2.32901,0 16.045013,-2.164001 16.367004,0.586998c0.395996,3.387001 -11.298004,7.928001 -13.566986,8.848999c-11.063019,4.487 -20.576019,4.131004 -32.464996,4.131004c-5.813019,0 -12.261017,-1.983002 -17.96402,-3.125c-4.658997,-0.932999 -12.445007,-1.708008 -16.22998,-4.542999"/>
  <path transform="translate(59, -37)" fill="none" stroke="#000000" stroke-linecap="square" stroke-miterlimit="10" id="path27" d="m255.191986,103.441002c7.106995,5.285995 17.136993,7.827995 25.368011,10.914001c5.940979,2.226997 18.846985,4.439995 25.071991,2.359993c2.845001,-0.950996 10.204987,-1.400993 11.501007,-5.012993c0.936005,-2.608002 -0.976013,-5.312004 -4.127991,-5.312004c-9.58902,0 -18.294006,-2.104996 -27.729004,-3.537994"/>
  <path transform="translate(59, -37)" fill="none" stroke="#000000" stroke-linecap="square" stroke-miterlimit="10" id="path29" d="m252.830994,109.931c4.23999,2.743004 35.136017,10.963997 34.807983,14.748001c-0.699982,8.074997 -24.102997,0.171997 -28.314972,-1.178001"/>
  <path transform="translate(59, -37)" fill="none" stroke="#000000" stroke-linecap="square" stroke-miterlimit="10" id="path31" d="m233.958008,115.830002c6.492004,3.258995 24.184998,7.254997 24.184998,16.51799c0,10.404999 -30.345001,-2.252991 -34.213989,-4.719994"/>
  <path transform="translate(59, -37)" fill="none" stroke="#000000" stroke-linecap="square" stroke-miterlimit="10" id="path33" d="m215.666992,129.399994c3.460999,2.600006 25.578003,9.653015 16.516998,14.158005c-10.264008,5.102005 -24.462006,-6.212997 -32.445007,-11.207993"/>
  <path transform="translate(59, -37)" fill="none" stroke="#000000" stroke-linecap="square" stroke-miterlimit="10" id="path35" d="m245.756012,67.458c6.518005,3.260002 13.389008,5.362 20.053986,8.258003c3.956024,1.718994 12.69101,5.240997 5.89801,8.848999c-12.480011,6.627998 -36.11499,-5.488998 -47.779999,-10.029999"/>
  <path transform="translate(59, -37)" fill="none" stroke="#000000" stroke-linecap="square" stroke-miterlimit="10" id="path37" d="m233.364014,82.207001c4.990997,2.867996 11.294006,4.164001 16.516998,6.487c3.804993,1.692001 11.994995,4.455002 5.015991,6.785004c-11.80899,3.942001 -27.777985,-7.147003 -37.460968,-12.684006"/>
  <path transform="translate(59, -37)" fill="none" stroke="#000000" stroke-linecap="square" stroke-miterlimit="10" id="path39" d="m209.766998,84.566002c4.735016,2.536995 33.562988,13.385002 32.446014,19.465996c-2.026001,11.032005 -29.997009,-8.582993 -33.627014,-10.616997"/>
  <path transform="translate(59, -37)" fill="none" stroke="#000000" stroke-linecap="square" stroke-miterlimit="10" id="path41" d="m210.360992,100.492004c3.312012,3.628998 7.666992,6.490997 11.208008,10.029999c2.347992,2.345993 5.140991,4.624001 1.765991,5.898994c-6.79599,2.568001 -19.513,-9.589996 -23.597,-13.566994"/>
  <path transform="translate(59, -37)" fill="none" stroke="#000000" stroke-linecap="square" stroke-miterlimit="10" id="path43" d="m194.432007,105.803001c1.84201,3.470001 16.872009,12.927002 13.56601,17.107002c-3.147003,3.980995 -12.935013,-3.563004 -15.929001,-5.309006"/>
  <path transform="translate(59, -37)" fill="none" stroke="#000000" stroke-linecap="square" stroke-miterlimit="10" id="path45" d="m183.220993,115.830002c1.438004,1.480995 8.67099,9.610001 6.785995,11.502998c-2.686996,2.698006 -9.716003,-0.955002 -11.503998,-2.654999"/>
  <path transform="translate(59, -37)" fill="none" stroke="#000000" stroke-linecap="square" stroke-miterlimit="10" id="path47" d="m168.473007,122.910004c3.341003,4.243996 7.518005,11.298996 -1.768997,11.798004"/>
  <path transform="translate(59, -37)" fill="none" stroke="#000000" stroke-linecap="square" stroke-miterlimit="10" id="path49" d="m177.322006,139.427002c-3.679001,-1.619003 -12.770996,1.778 -7.080002,4.721008"/>
  <path transform="translate(59, -37)" fill="none" stroke="#000000" stroke-linecap="square" stroke-miterlimit="10" id="path51" d="m185.582993,130.578003c-3.556,0.944 -7.914001,0.686005 -5.604996,5.309998c1.578995,3.162994 6.085999,3.929993 9.14299,4.128998c1.931,0.126007 7.445999,0.998001 8.852005,0.294998c2.701996,-1.352005 3.313004,0.659012 1.765991,-2.654999c-1.957001,-4.194 -9.860001,-6.944992 -14.153992,-6.490005"/>
  <path transform="translate(59, -37)" id="path53" d="m223.334015,57.429001c-4.787994,0.363998 -8.359985,-0.699001 -12.973999,1.181c-4.561981,1.859001 -7.757996,5.981995 -11.210999,9.436996c2.994995,-4.341995 5.144989,-9.908997 9.417999,-13.107998c6.248993,-4.678997 11.845978,3.865002 14.766998,2.490002"/>
  <path transform="translate(59, -37)" fill="none" stroke="#000000" stroke-linecap="square" stroke-miterlimit="10" id="path55" d="m5.064999,84.566002c-11.622997,3.853996 -24.653999,2.948997 -36.719999,2.948997c-2.229002,0 -15.607,-2.512001 -16.372999,0c-1.112999,3.652 10.747002,8.227997 12.927002,9.163002c10.653997,4.57 20.130997,4.857002 31.690998,3.967003c9.858002,-0.759003 27.507,-1.172005 35.614002,-7.230003"/>
  <path transform="translate(59, -37)" fill="none" stroke="#000000" stroke-linecap="square" stroke-miterlimit="10" id="path57" d="m47.540001,102.854004c-13.761002,7.849998 -32.661003,15.702995 -48.962002,13.565994c-4.648998,-0.609001 -20.074999,-7.287994 -8.848999,-10.616997c3.925999,-1.164001 8.882,0.139 12.979,-0.886002c4.893002,-1.223 10.288002,-1.810005 15.335999,-2.653999"/>
  <path transform="translate(59, -37)" fill="none" stroke="#000000" stroke-linecap="square" stroke-miterlimit="10" id="path59" d="m49.902,109.339996c-5.995003,2.804001 -11.634003,5.252007 -17.960999,7.365005c-2.766998,0.923996 -15.652,3.749001 -16.251999,6.795998c-1.561005,7.924004 24.428993,0.866997 28.314995,-0.590996"/>
  <path transform="translate(59, -37)" fill="none" stroke="#000000" stroke-linecap="square" stroke-miterlimit="10" id="path61" d="m68.780998,115.239998c-5.021996,2.509003 -26.866997,8.526001 -23.597,17.110008c3.783005,9.929993 28.770004,-2.589996 34.213997,-5.312004"/>
  <path transform="translate(59, -37)" fill="none" stroke="#000000" stroke-linecap="square" stroke-miterlimit="10" id="path63" d="m87.065994,128.809998c-3.75,2.451996 -24.897003,9.714996 -15.929001,14.157013c9.201996,4.55899 25.791,-5.275009 31.858002,-11.798004"/>
  <path transform="translate(59, -37)" fill="none" stroke="#000000" stroke-linecap="square" stroke-miterlimit="10" id="path65" d="m56.982002,66.867996c-6.060005,4.260002 -14.514999,5.773003 -21.217003,9.133003c-3.490997,1.75 -11.666,5.473 -3.266998,8.269005c6.747002,2.246994 15.696999,-0.603004 22.270996,-2.249008c8.286003,-2.073997 16.828003,-4.567993 24.628006,-8.076996"/>
  <path transform="translate(59, -37)" fill="none" stroke="#000000" stroke-linecap="square" stroke-miterlimit="10" id="path67" d="m69.367996,81.615997c-6.867996,5.304001 -19.757996,4.039001 -24.778,11.799004c11.136002,7.730995 31.439011,-5.579002 41.294006,-11.208"/>
  <path transform="translate(59, -37)" fill="none" stroke="#000000" stroke-linecap="square" stroke-miterlimit="10" id="path69" d="m92.964996,83.974998c-4.729996,3.450005 -33.279999,12.728996 -31.857994,19.466003c2.283997,10.819 29.109001,-8.133003 33.038994,-10.618004"/>
  <path transform="translate(59, -37)" fill="none" stroke="#000000" stroke-linecap="square" stroke-miterlimit="10" id="path71" d="m92.376999,99.903999c-2.246002,2.254997 -17.306,13.112 -12.979004,15.926003c2.266998,1.473999 10.994003,-3.083 12.999008,-4.587006c4,-3 7.623001,-6.005997 11.185989,-9.569992"/>
  <path transform="translate(59, -37)" fill="none" stroke="#000000" stroke-linecap="square" stroke-miterlimit="10" id="path73" d="m108.300003,105.212997c-2.005997,3.472 -16.481003,13.312004 -12.973999,17.107002c3.380997,3.657997 12.895996,-3.083 15.335999,-5.899002"/>
  <path transform="translate(59, -37)" fill="none" stroke="#000000" stroke-linecap="square" stroke-miterlimit="10" id="path75" d="m119.511002,115.239998c-1.160995,2.326004 -8.304001,8.963005 -6.487,11.798004c1.660995,2.590996 9.763992,-1.724998 11.798004,-2.950005"/>
  <path transform="translate(59, -37)" fill="none" stroke="#000000" stroke-linecap="square" stroke-miterlimit="10" id="path77" d="m134.259003,122.32c-4.654007,6.273994 -5.818008,8.841011 2.362,11.797997"/>
  <path transform="translate(59, -37)" fill="none" stroke="#000000" stroke-linecap="square" stroke-miterlimit="10" id="path79" d="m125.410995,138.835999c3.473007,-1.56601 13.124008,0.455994 7.080002,4.721008"/>
  <path transform="translate(59, -37)" fill="none" stroke="#000000" stroke-linecap="square" stroke-miterlimit="10" id="path81" d="m117.149002,129.988007c12.845001,0.477997 3.488998,9.438995 -4.421997,9.438995c-3.554001,0 -12.389008,2.070007 -9.733002,-2.950012c2.138992,-4.041992 10.617996,-6.225983 14.748001,-5.898987"/>
  <path transform="translate(59, -37)" id="path83" d="m79.397995,56.838001c4.677002,0.376999 8.987,-1.511002 13.567001,0.59c4.137009,1.896999 8.005997,6.438999 10.617996,10.029999c-1.694992,-4.084999 -5.678986,-11.040001 -9.436996,-13.57c-5.25,-3.533001 -9.973999,0.223999 -14.748001,2.950001"/>
  <path transform="translate(59, -37)" fill="#FFFFFF" id="path85" d="m113.024002,214.938004c-0.227997,-20.348999 43.457993,-17.003998 55.389999,-17.632004c18.311996,-0.962997 42.981995,-2.505997 56.140991,-16.979996c7.938019,-8.73201 3.562012,-19.445007 -2.945007,-27.570999c-5.949982,-7.431 -16.817993,-10.19101 -25.825989,-11.994003c-5.908997,-1.181992 -23.125992,1.990005 -25.541992,8.695999c-2.848007,7.902008 17.937988,7.269989 22.284988,6.960999c6.102005,-0.43399 14.557999,-0.95401 18.422012,4.835999c4.313995,6.466003 -0.541992,12.518005 -5.470001,16.740005c-4.809998,4.121994 -14.052002,3.417999 -20.055008,4.356003c-7.729996,1.207993 -15.352997,2.105988 -23.12999,2.884995c-13.351013,1.337006 -26.240005,0.324005 -39.548004,2.981003c-13.100998,2.616989 -27.901001,13.030991 -26.832001,27.899994c5.703995,-0.39299 11.406998,-0.785004 17.110001,-1.177994"/>
  <path transform="translate(59, -37)" fill="none" stroke="#000000" stroke-linecap="square" stroke-miterlimit="10" id="path87" d="m113.024002,214.938004c-0.227997,-20.348999 43.457993,-17.003998 55.389999,-17.632004c18.311996,-0.962997 42.981995,-2.505997 56.140991,-16.979996c7.938019,-8.73201 3.562012,-19.445007 -2.945007,-27.570999c-5.949982,-7.431 -16.817993,-10.19101 -25.825989,-11.994003c-5.908997,-1.181992 -23.125992,1.990005 -25.541992,8.695999c-2.848007,7.902008 17.937988,7.269989 22.284988,6.960999c6.102005,-0.43399 14.557999,-0.95401 18.422012,4.835999c4.313995,6.466003 -0.541992,12.518005 -5.470001,16.740005c-4.809998,4.121994 -14.052002,3.417999 -20.055008,4.356003c-7.729996,1.207993 -15.352997,2.105988 -23.12999,2.884995c-13.351013,1.337006 -26.240005,0.324005 -39.548004,2.981003c-13.100998,2.616989 -27.901001,13.030991 -26.832001,27.899994"/>
  <path transform="translate(59, -37)" fill="#FFFFFF" id="path89" d="m141.339005,218.475006c-0.983002,-45.81601 -1.966003,-91.633003 -2.949997,-137.449997c8.258987,0.197006 16.51799,0.393997 24.778,0.591003c-0.815002,26.907997 -1.632004,53.815994 -2.447006,80.724991c-0.475006,15.673004 -0.949997,31.345001 -1.425003,47.018005c-0.085999,2.830002 -0.171997,5.660995 -0.257996,8.490997c-0.007004,0.252991 -15.986008,0.567993 -17.697998,0.625"/>
  <path transform="translate(59, -37)" fill="none" stroke="#000000" stroke-linecap="square" stroke-miterlimit="10" id="path91" d="m141.339005,218.475006c-0.983002,-45.81601 -1.966003,-91.633003 -2.949997,-137.449997c8.258987,0.197006 16.51799,0.393997 24.778,0.591003c-1.377014,45.423996 -2.754013,90.847 -4.131012,136.270996"/>
  <path transform="translate(59, -37)" fill="#FFFFFF" id="path93" d="m157.856003,263.899994c-0.598999,21.858002 -1.197006,43.716003 -1.794998,65.574005c-0.406998,14.841003 -0.813004,29.681 -1.220001,44.520996c-0.076996,2.839996 1.310989,18.639008 -1.703003,19.393005c-9.942001,2.485992 -7.759995,-4.269012 -7.925003,-11.503998c-0.309998,-13.5 -0.619995,-27 -0.929001,-40.5c-0.576996,-25.178009 -1.154999,-50.355011 -1.731995,-75.53302c-0.074005,-3.208984 12.339005,-1.836975 15.304001,-1.950989"/>
  <path transform="translate(59, -37)" fill="none" stroke="#000000" stroke-linecap="square" stroke-miterlimit="10" id="path95" d="m157.856003,263.899994c-0.598999,21.858002 -1.197006,43.716003 -1.794998,65.574005c-0.406998,14.841003 -0.813004,29.681 -1.220001,44.520996c-0.076996,2.839996 1.310989,18.639008 -1.703003,19.393005c-9.942001,2.485992 -7.759995,-4.269012 -7.925003,-11.503998c-0.309998,-13.5 -0.619995,-27 -0.929001,-40.5c-0.576996,-25.178009 -1.154999,-50.355011 -1.731995,-75.53302c-0.009995,-0.452972 -0.020996,-0.905975 -0.031006,-1.358978"/>
  <path transform="translate(59, -37)" fill="none" stroke="#000000" stroke-linecap="square" stroke-miterlimit="10" id="path97" d="m138.389999,89.875c6.378998,4.862999 17.458008,4.604004 24.184006,0.589996"/>
  <path transform="translate(59, -37)" fill="#FFFFFF" id="path99" d="m150.776001,85.744003c28.518005,1.819992 29.358002,-44.244003 0.917999,-44.244003c-13.583008,0 -21.406998,8.877998 -23.242996,21.773003c-1.306,9.181 12.780991,28.051003 22.324997,22.471001"/>
  <path transform="translate(59, -37)" fill="none" stroke="#000000" stroke-linecap="square" stroke-miterlimit="10" id="path101" d="m150.776001,85.744003c28.518005,1.819992 29.358002,-44.244003 0.917999,-44.244003c-13.583008,0 -21.406998,8.877998 -23.242996,21.773003c-1.914001,13.445 11.313004,21.217003 22.32399,23.061996"/>
  <path transform="translate(59, -37)" fill="#FFFFFF" id="path103" d="m165.524002,325.841003c3.375992,-4.057007 5.897995,-10.291016 5.897995,-15.666016c0,-11.494995 -6.136002,-17.087982 -14.569992,-23.835999c-7.64801,-6.117981 -16.479004,-8.208008 -23.344009,-16.049988c-7.899994,-9.020996 2.104004,-16.503006 11.236008,-18.406006c19.457993,-4.054001 44.298004,-6.511993 56.766998,-23.966995c6.360001,-8.904007 7.810013,-19.147003 0.589005,-28.317001c-6.971008,-8.852982 -17.880005,-11.240997 -28.307999,-13.138992c-18.553009,-3.376007 -37.721008,-1.770004 -56.485001,-4.702011c-9.152008,-1.429993 -21.011002,-1.097 -25.52301,-11.064987c-5.037003,-11.124008 6.856003,-15.337997 15.641006,-15.337997c4.918991,0 24.899994,3.013992 26.246994,-4.721008c1.389008,-7.981995 -20.002991,-10.617004 -24.606003,-10.617004c-19.617996,0 -39.570992,16.324005 -32.791992,36.639008c3.044998,9.125 17.427994,12.949997 25.541,14.978989c10.291992,2.572998 20.681,3.520004 31.263992,4.424011c11.863998,1.013992 54.054001,-2.269012 56.339005,15.926987c2.611008,20.809006 -37.875992,24.347 -50.809006,27.090012c-19.300995,4.091995 -36.955994,24.387009 -18.468994,41.020981c7.923996,7.131012 18.302002,11.481018 27.098999,17.429016c3.253998,2.200012 6.561996,3.96402 8.255005,7.667023c2.072998,4.53299 0.813995,10.606995 0.593994,15.929993c3.188004,0.474976 7.796997,4.687988 9.436005,4.717987"/>
  <path fill="none" stroke="#000000" stroke-linecap="square" stroke-miterlimit="10" id="path105" d="m224.524002,288.841003c3.375992,-4.057007 5.897995,-10.291016 5.897995,-15.666016c0,-11.494995 -6.136002,-17.087982 -14.569992,-23.835999c-7.64801,-6.117981 -16.479004,-8.208008 -23.344009,-16.049988c-7.899994,-9.020996 2.104004,-16.503006 11.236008,-18.406006c19.457993,-4.054001 44.298004,-6.511993 56.766983,-23.966995c6.360016,-8.904007 7.810028,-19.147003 0.58902,-28.317001c-6.971008,-8.852982 -17.880005,-11.240997 -28.307999,-13.138992c-18.553009,-3.376007 -37.721008,-1.770004 -56.485001,-4.702011c-9.152008,-1.429993 -21.011002,-1.097 -25.52301,-11.064987c-5.037003,-11.124008 6.856003,-15.337997 15.641006,-15.337997c4.918991,0 24.899994,3.013992 26.246994,-4.721008c1.389008,-7.981995 -20.002991,-10.617004 -24.606003,-10.617004c-19.617996,0 -39.570999,16.324005 -32.791992,36.639008c3.044998,9.125 17.427994,12.949997 25.541,14.978989c10.291992,2.572998 20.681,3.520004 31.263992,4.424011c11.863998,1.013992 54.054001,-2.269012 56.339005,15.926987c2.611008,20.809006 -37.875992,24.347 -50.809006,27.090012c-19.300995,4.091995 -36.955994,24.387009 -18.468994,41.020981c7.923996,7.131012 18.302002,11.481018 27.098999,17.429016c3.253998,2.200012 6.561996,3.96402 8.255005,7.667023c2.072998,4.53299 0.813995,10.606995 0.593994,15.929993c3.484009,0.518982 6.735001,2.897003 9.436996,5.30899"/>
  <path transform="translate(59, -37)" fill="#FFFFFF" id="path107" d="m154.906006,387.191986c7.470001,3.666992 8.742004,-10.488007 3.246002,-14.156006c-6.393005,-4.268982 -12.440002,-7.414978 -17.994003,-12.97998c-2.639999,4.91098 -7.164001,16.484985 0.884003,19.173981c5.442993,1.817017 9.035995,5.06601 13.863998,7.962006"/>
  <path transform="translate(59, -37)" fill="none" stroke="#000000" stroke-linecap="square" stroke-miterlimit="10" id="path109" d="m154.906006,387.191986c7.470001,3.666992 8.742004,-10.488007 3.246002,-14.156006c-6.393005,-4.268982 -12.440002,-7.414978 -17.994003,-12.97998c-2.639999,4.91098 -7.164001,16.484985 0.884003,19.173981c5.442993,1.817017 9.035995,5.06601 13.863998,7.962006"/>
  <path transform="translate(59, -37)" id="path111" d="m114.792999,145.325989c1.891998,0.810013 0.975006,-3.347992 -1.768997,-0.590988c1.070999,1.216995 1.263992,0.75499 1.768997,0.590988"/>
  <path transform="translate(59, -37)" id="path113" d="m190.300995,146.507004c6.382004,-0.572006 -5.23999,-2.137009 0,0"/>
  <path transform="translate(59, -37)" id="path115" d="m166.117004,64.509003c2.228989,6.338997 -5.438004,13.634003 -10.623001,15.925995c5.181992,-0.475998 16.919998,-11.864998 10.623001,-15.925995"/>
  <path transform="translate(59, -37)" fill="#FFFFFF" id="path117" d="m142.520996,264.490997c-0.306,-11.917999 -0.612,-23.834991 -0.916992,-35.752991c-0.02301,-0.881012 -0.574997,-10.252014 -0.005997,-10.271011c5.812988,-0.192993 11.625992,-0.386002 17.438995,-0.578995c-0.292007,11.360992 -0.583008,22.722992 -0.875,34.082993c-0.046005,1.799011 1.011993,10.601028 -0.306,11.930008c-1.76001,1.77301 -12.584,0.483002 -15.335007,0.589996"/>
  <line transform="translate(59, -37)" fill="none" stroke="#000000" stroke-linecap="square" stroke-miterlimit="10" y2="263.9" y1="217.297" x2="157.856" x1="159.037" id="line119"/>
  <line transform="translate(59, -37)" fill="none" stroke="#000000" stroke-linecap="square" stroke-miterlimit="10" y2="218.475" y1="264.491" x2="141.339" x1="142.521" id="line121"/>
  <path transform="translate(59, -37)" fill="#FFFFFF" id="path123" d="m190.889008,263.309998c-4.147995,-20.820999 -27.516998,-24.785004 -45.418991,-27.725998c-9.654007,-1.585999 -17.187012,-3.837006 -24.955002,-10.050003c-1.178009,-0.942001 -7.960007,-10.563995 -7.740005,-10.578995c-5.619995,0.386993 -11.240005,0.772995 -16.860001,1.160004c5.833008,20.401993 25.112,29.041 44.834,32.740997c8.270004,1.552002 19.641006,2.056992 26.568008,7.244003c1.751999,1.311981 6.060989,7.798981 6.854996,7.798981c4.242981,0.001007 13.866989,1.515015 16.716995,-0.588989"/>
  <path transform="translate(59, -37)" fill="none" stroke="#000000" stroke-linecap="square" stroke-miterlimit="10" id="path125" d="m95.914993,216.115997c4.856995,16.986008 18.541992,25.690002 35.106995,30.425003c11.650009,3.328995 38.567001,2.804993 42.169998,17.358994"/>
  <path transform="translate(59, -37)" fill="none" stroke="#000000" stroke-linecap="square" stroke-miterlimit="10" id="path127" d="m190.889008,263.309998c-7.673996,-38.516998 -66.472,-13.780991 -77.86499,-48.371994"/>
  <path transform="translate(59, -37)" fill="#FFFFFF" id="path129" d="m155.494003,341.769989c2.192001,-5.433014 -8.600998,-6.661987 -12.408997,-8.56601c-5.205002,-2.60199 -10.063004,-6.276001 -13.085007,-11.315002c-3.878006,-6.467987 9.156006,-9.613983 13.695999,-11.975983c-1.925003,4.468994 0.908005,6.618988 4.723999,8.260986c5.527008,2.378021 11.009995,3.382996 15.923004,7.076996c3.21199,2.415009 6.233994,6.834015 6.492996,11.208008c0.462997,7.853027 -9.255997,5.186005 -15.341995,5.311005"/>
  <path transform="translate(59, -37)" fill="none" stroke="#000000" stroke-linecap="square" stroke-miterlimit="10" id="path131" d="m170.242004,341.179993c3.534988,-7.988007 -4.126007,-14.927002 -10.02301,-18.287994c-5.026993,-2.865997 -20.207993,-4.425018 -16.522995,-12.979004"/>
  <path transform="translate(59, -37)" fill="none" stroke="#000000" stroke-linecap="square" stroke-miterlimit="10" id="path133" d="m155.494003,341.769989c1.761002,-4.364014 -4.979996,-5.730011 -8.255005,-7.079987c-7.084,-2.920013 -18.063004,-7.927002 -18.291,-17.106018"/>
  <path transform="translate(59, -37)" fill="#FFFFFF" id="path135" d="m131.897003,348.846985c2.250992,12.266998 16.964996,19.690002 27.139999,24.777985c1.313004,-2.833984 2.949997,-4.453003 2.949997,-7.964996c0,-5.72699 -5.690002,-6.570984 -8.852997,-9.731995c-2.194,-2.195007 -6.412003,-2.81601 -7.960999,-5.899994c-1.807999,-3.597992 -9.542007,-1.358978 -13.276001,-1.181"/>
  <path transform="translate(59, -37)" fill="none" stroke="#000000" stroke-linecap="square" stroke-miterlimit="10" id="path137" d="m131.897003,348.846985c2.250992,12.266998 16.964996,19.690002 27.139999,24.777985c2.740997,-5.917999 4.936996,-10.288971 -1.768997,-15.338989c-4.103012,-3.089996 -11.166,-4.510986 -12.979004,-10.028992"/>
 </g>
</svg>